<?xml version="1.0" encoding="UTF-8"?>
<svg id="Layer_2" data-name="Layer 2" xmlns="http://www.w3.org/2000/svg" viewBox="0 0 1858.09 892.57">
  <defs>
    <style>
      .cls-1 {
        fill: #d7dbd5;
      }

      .cls-2 {
        fill: #494d4b;
      }
    </style>
  </defs>
  <g id="Layer_1-2" data-name="Layer 1">
    <g>
      <path class="cls-2" d="M338.16,723.97c.39-7.84,.69-15.69,1.2-23.52,.7-10.75,.66-21.56,2.55-32.21,2.47-13.89,7.5-26.91,13.74-39.49,2.78-5.61,6.05-10.93,9.63-16.1,4.78-6.91,10.64-12.38,18.35-15.79,4.98-2.21,9.33-5.06,10.39-10.92,.86-4.73,4.24-6.76,8.16-8.7,11.96-5.94,23.84-12.08,33.3-21.81,1.88-1.93,3.73-4.09,4.87-6.48,2.99-6.29,1.18-11.61-3.44-16.69-16.43-18.1-29.15-38.75-40.39-60.34-9.81-18.83-18.3-38.28-26.54-57.83-1.16-2.76-2.33-3.15-4.45-.99-3.85,3.93-5.81,8.84-7.32,13.95-3.45,11.6-4.84,23.54-5.64,35.57-1.58,23.64-2.1,47.3-1.01,70.98,.08,1.81,.42,3.77-1.39,6.45-2.23-13.51-3.96-26-6.4-38.37-3.91-19.87-6.41-39.96-9.75-59.92-2.2-13.16-3.81-26.41-5.6-39.64-1.85-13.71-3.49-27.44-5.42-41.14-.91-6.42-5.44-11.22-8.38-16.71-3.63-6.79-7.85-13.27-11.8-19.89-2.4-4.02-3.37-4.22-5.86-.25-5.46,8.71-10.95,17.43-15.79,26.48-2.05,3.84-.11,8.46,.23,12.71,1.54,19.08,4.47,38.02,6.7,57.02,1.48,12.58,2.64,25.23,4.7,37.77,2.05,12.52,3.11,25.21,4.57,37.83,2.34,20.29,4.34,40.62,7.13,60.85,1.16,8.44,2.05,16.91,3.26,25.35,.29,2.04,.26,4.13,.42,7.01-4.85-3.98-7.56-8.71-10.79-12.95-8.46-11.12-16.76-22.36-25.09-33.57-.98-1.32-3.15-2.95,.58-3.73,.34-.07,.49-1.73,.48-2.66-.06-13.55-.91-27.03-2.69-40.47-.97-7.33-1.29-14.75-2.2-22.09-2.35-19-5.97-37.75-11.13-56.2-5.55-19.85-12.31-39.27-22.17-57.39-10.2-18.74-22.74-35.77-40.1-48.71-4.76-3.55-8.33-2.13-10.05,3.53-2.36,7.8-1.72,15.66-.63,23.48,.7,4.99,.88,9.96,.72,14.94-.24,7.94-6.53,12.62-14.15,10.47-6.92-1.96-12.62-5.48-14.85-13.04-.72-2.43-2.09-4.72-3.43-6.91-2.9-4.76-5.25-5.29-10.67-3.85-8.58,2.28-17.34,3.36-26.25,2.53-3.96-.37-4.31-2.08-1.87-4.79,2.27-2.51,4.77-4.82,6.98-7.38,3.06-3.56,2.65-5.83-1.5-8.05-2.87-1.54-6.08-2.05-9.33-2.21-16-.77-31.14,3.44-46.53,7.05-8.56,2.01-13.16,6.21-17.46,13.53-6.95,11.82-16.43,21.44-31,24.12-3.89,.72-7.61,.83-11.48,.09-3.85-.73-4.12-2.97-3.04-6.05,1.27-3.65,4.1-6.15,6.7-8.75,8.32-8.36,17.75-15.33,27.9-21.29,3.82-2.24,5-6.26,7.15-9.48,11.26-16.79,23.98-32.33,39.03-45.77,14.18-12.65,29.96-23.17,46.55-32.48,23.34-13.1,48.04-23.14,73.17-32.1,14.03-5.01,27.92-10.86,43.17-11.76,7.22-.43,14.24,.29,20.9,2.8,5.34,2.01,10.13,4.43,16.31,4.66,7.54,.28,15.1,2.79,21.88,6.93,11.4,6.97,22.33,14.53,31.1,24.73,5.21,6.06,7.74,13.63,10.26,21.05,1.97,5.77,3.43,11.75,4.74,17.71,.63,2.85,2.02,3.9,4.74,4.5,9.61,2.09,18.04,6.34,22.95,15.31,3.17,5.78,5.27,12.07,5.52,18.78,.18,5,.66,10.06,.09,14.99-.84,7.36,1.67,13.44,5.41,19.42,7.47,11.92,12.6,24.79,16.37,38.38,4.5,16.2,5.31,32.65,5.24,49.25-.01,2.88-.19,5.83-.8,8.64-2.54,11.78,3.27,21.27,8.5,30.8,7.41,13.51,14.94,26.97,23.92,39.54,3.17,4.44,5.83,9.41,9.68,13.17,7.93,7.75,9.14,17.98,10.7,27.78,1.32,8.31,1.13,16.91-1.66,25.34-3.73,11.27-11.65,18.55-21.14,24.67-3.66,2.37-7.61,4.18-11.64,5.82-.73,.3-1.66,.46-1.76,1.42-.14,1.32,1.03,1.35,1.87,1.76,12.9,6.21,25.59,12.78,37.43,20.9,3.58,2.45,5.36,4.4,3.73,9.64-3,9.63-4.42,19.75-6.31,29.71-2.86,14.99-5.6,29.99-8.31,45.01-4.46,24.66-8.71,49.37-13.36,73.99-2.41,12.77-5.48,25.42-8.26,38.13-.14,.63-.21,1.28-.43,1.88-.87,2.34-2.06,4.67-4.78,4.89-2.8,.23-4.41-2.08-5.31-4.25-1.74-4.19-2.24-8.72-2.36-13.24-.54-20.96,1.73-41.86,1.11-62.84-.32-10.85-1.66-21.46-4.3-31.92-2.83-11.19-10.09-14.73-24.11-12.06-6.53,1.24-12.77,3.43-18.71,6.31-2.7,1.31-4.48,1.05-6.24-1.24-1.08-1.4-2.25-2.75-3.5-4-6.55-6.53-12.99-6.06-18.67,1.39-1.9,2.49-3.7,5.06-5.55,7.6-.43-.17-.85-.35-1.28-.52Z"/>
      <path class="cls-2" d="M1469.05,439.8c-2.52-10.84-3.75-21.03-5.58-31.11-2.83-15.53-3.65-31.3-5.94-46.88-2.61-17.81,.05-34.57,8.43-50.49,8.24-15.65,16.36-31.36,26.94-45.64,1.31-1.77,2.29-3.95,2.83-6.09,2.96-11.64,5.74-23.33,8.83-36.03-6.02,4.17-8.98,9.91-14.35,13.82-4.38-11.6-5.12-23.9-9.43-35.66-2.95,3.04-3.77,6.88-5.24,10.23-4.58,10.41-11.16,20.05-13.2,31.47-1.24,6.95-1.77,14.04-2.69,21.05-.17,1.33,.66,3.38-1.12,3.78-1.56,.35-2.21-1.58-3.02-2.74-4.03-5.8-8.06-11.62-12.06-17.44-.54-.79-.89-1.89-1.97-1.93-1.2-.05-1.48,1.1-1.76,1.99-4.32,13.64-8.6,27.3-12.93,40.94-1.1,3.47-.91,6.85-.42,10.45,2.18,15.9,4.02,31.85,6.05,48.33-4.55-2.85-6.09-7.49-8.91-11.02-4.5-5.64-8.65-11.59-12.62-17.62-1.52-2.31-2.87-2.82-5.52-2.23-3.88,.87-8.26,2.31-11.78,1.29-3.67-1.06-3.97-6.23-5.73-9.61-2.67-5.14-5.34-10.27-8.05-15.39-.43-.8-.83-2.03-2-1.64-.56,.19-.98,1.21-1.21,1.94-3.58,11.41-5.39,23.19-6.79,35.01-2.22,18.8-1.57,37.7-.92,56.53,.5,14.45,1.71,28.98,4.13,43.21,2.34,13.78,8.19,26.68,14.09,39.37,8.54,18.36,17.37,36.58,25.89,54.95,1.47,3.17,2.03,6.77,2.92,10.2,.31,1.2,.83,2.71-.53,3.52-1.21,.72-2.09-.58-2.91-1.21-4.66-3.6-7.75-8.48-10.84-13.38-4.69-7.44-7.73-15.75-12.62-24.44,1.11,12.24,2.2,23.26,3.07,34.29,1.14,14.47,2.2,29.05-1.06,43.3-2.07,9.02,.23,17.16,2.2,25.58,1.07,4.54,1.87,9.14,1.82,13.86-.09,9.38-1.62,10.58-10.93,7.88,.73,3.91,4.19,6.02,5.37,9.37,1.01,2.85,3.04,5.77,.68,8.6-2.51,3.01-6.17,2.78-9.4,1.52-3.82-1.5-6.67-.71-9.62,1.94-3.86,3.47-7.48,7.11-10.24,11.51-4.33,6.89-3.92,14.12,.95,19.7,5.94,6.81,7.48,16.05,1.23,22.41-7.89,8.02-8.47,17.97-10.74,27.61-1.17,4.96-3.02,9.5-5.67,13.75-2.13,3.41-4.99,6.05-9.4,5.69-2.84-.23-3.43,1.13-3.8,3.62-2.18,14.89-10.81,18.11-24.06,19.34-2.52,.23-3.65-.64-4.06-3.39-1.67-11.13-3.38-22.27-5.56-33.3-4.05-20.49-8.34-40.94-12.75-61.36-2.07-9.57-4.61-19.05-7.09-28.52-.71-2.7-.22-4.22,2.14-6.07,14.77-11.59,29.29-23.51,43.99-35.2,10.81-8.6,21.54-17.27,31.53-26.83,3.6-3.45,4.82-6.61,1.92-11.31-4.97-8.07-8-16.79-7.43-26.55,.4-6.88,2.55-13.23,5.02-19.53,2.22-5.67,4.88-11.19,6.18-17.19,.65-2.99,.25-5.94-1.47-8.32-15.64-21.65-21.22-46.47-23.43-72.47-1.51-17.84-2.45-35.7-1.74-53.58,.87-22.04,.6-44.19,3.19-66.1,2.42-20.5,9.32-39.68,21.34-56.79,5.12-7.29,9.18-15.13,10.3-24.16,.55-4.43,3.83-7.43,6.08-10.83,10.23-15.44,21.27-30.29,35.25-42.63,10.01-8.84,20.87-15.75,35.13-14.22,2.03,.22,3.46-.86,5.12-2.09,9.34-6.95,19.03-13.31,31.3-13.57,3.22-.07,6.32,.13,9.37,1.64,7.84,3.88,16.49,2.16,24.75,3.02,16.03,1.67,32.1,3.17,47.63,7.55,15.21,4.3,29.75,10.15,40.85,22.35,3.29,3.61,8.79,3.65,13.24,5.32,19.12,7.19,35.55,18.23,48.71,33.72,9.7,11.42,17.16,24.34,22.69,38.37,6.16,15.63,10.37,31.71,13.44,48.23,5.13,27.56,6.35,55.26,4.46,83.15-1.64,24.3-6.48,48.07-12.27,71.68-2.42,9.87-1.92,20.15-3.15,30.21-1.26,10.34-2.84,20.65-3.17,32.22-1.27-3.43-.87-5.83-.88-8.18-.05-13.07,.35-26.15-.16-39.2-.51-12.91,2.65-25.23,4.59-37.77,3.99-25.83,6.37-51.8,5.14-77.97-.81-17.23-4.24-34.13-6.81-51.14-1.73-11.44-2.78-22.93-6.19-34.11-6-19.69-15.95-36.79-31.6-50.3-13.04-11.26-27.84-19.61-44.23-24.88-6.78-2.18-13.99-2.27-21.1-1.44-10.25,1.2-17.13,7.58-22.89,15.44-11.12,15.16-22.28,30.27-34.49,44.6-7.9,9.27-17.67,16.43-26.4,24.75-12.27,11.69-21.4,25.67-28.62,40.89-4.96,10.45-9.84,21.04-11.14,32.71-1.36,12.16-1.83,24.35-1.11,36.63,.79,13.51,2.17,26.95,3.29,40.42,.49,5.9,1.68,11.79,.7,18.63Z"/>
      <path class="cls-1" d="M1048.65,285.35c-2.68-11.68-5.28-23.41-8.34-35.04-7.08-26.9-22.41-46.93-47.15-60.19-20.69-11.09-42.09-20.21-64.52-27-2.45-.74-4.99-1.2-7.48-1.81-2.27-.55-4.9-1.48-4.6-4.06,.26-2.19,2.55-3.59,5.06-3.62,8.7-.09,17.42-.5,26.08,.78,14.85,2.2,28.93,6.86,43.14,14-1.01-7.57-5.49-11.96-10.23-15.77-11.11-8.92-24.42-13.29-37.78-17.57-10.96-3.51-22.36-5.65-32.92-10.4-1.31-.59-2.76-1.14-3.73-2.12-1.54-1.57-2.14-3.18,.83-4.27,2.81-1.03,5.7-1.08,8.57-1.23,9.17-.49,18.35-.69,27.51-1.24,2.71-.16,6.43,.53,7.42-3,1.05-3.76-.51-7.17-3.38-9.94-4.13-3.98-9.21-6.35-14.47-8.17-10.63-3.69-21.53-6.46-32.54-8.76-3-.63-5.83-1.65-8.56-2.99-1.18-.58-2.37-1.09-2.44-2.65-.07-1.72,1.04-2.61,2.39-3.3,3.95-2.01,8.22-2.74,12.57-3.14,.92-.08,2.17,.04,2.45-1.03,.33-1.23-.67-2.04-1.62-2.7-5.88-4.06-12.46-4.58-18.99-2.67-9.43,2.76-18.6,2.87-28.01,0-5.14-1.57-10.5-1.5-15.6,.79-2.2,.99-4.29,2.09-5.69,4.73,4.57,1.79,9.47,.95,13.65,3.09,1.85,.95,4.21,1.47,4.37,3.96,.16,2.53-2.29,2.92-3.97,3.56-8.57,3.28-17.74,4.38-26.47,7.07-9.6,2.97-19.71,4.82-27.37,12.16-.58,.56-1.28,1.03-1.74,1.67-1.85,2.59-3.05,5.54-1.96,8.6,1.06,2.99,4.3,2.52,6.65,2.66,9.65,.61,19.31,.86,28.97,1.3,2.73,.13,5.41,.41,8.07,1.29,3.43,1.13,2.65,2.6,.66,4.27-2.9,2.43-6.51,3.55-9.99,4.65-9.8,3.1-19.74,5.75-29.55,8.81-12.57,3.93-24.9,8.42-35.27,16.96-4.04,3.33-7.04,7.4-9.36,12.04-.45,.91-.9,1.9-.02,2.62,.64,.53,1.47,0,2.21-.39,12.67-6.57,26.15-10.59,40.22-12.8,8.66-1.36,17.37-.94,26.06-.88,2.4,.02,5.25,.66,5.4,3.71,.14,2.78-2.51,3.45-4.71,3.98-20.71,4.92-40.35,12.79-59.32,22.24-16.11,8.03-31.79,16.82-43.15,31.51-6.37,8.24-10.53,17.54-13.86,27.25-4.49,13.08-7.79,26.48-9.9,40.17-.16,1.06-.67,2.06-1.34,4.05-1.6-10.67-.16-20.24,.86-29.8,1.94-18.35,7.87-35.68,13.66-53.06,4.8-14.38,5.58-29.66,9.42-44.28,5.15-19.58,10.48-39.08,21.31-56.49,4.34-6.97,10.48-12.51,15.63-18.84,8.38-10.31,15.99-21.22,24.55-31.41,13.78-16.4,30.62-28.45,50.1-37.15,6.55-2.93,12.69-6.75,19.11-9.99,16.29-8.21,32.52-6.92,48.09,1.56,9.43,5.13,19.01,9.93,28.51,14.91,15.56,8.16,28.23,19.69,39.36,33.09,10.02,12.07,18.55,25.33,29.29,36.8,14.29,15.25,20.55,34.27,26.33,53.69,5.1,17.15,7.53,34.84,11.58,52.18,2.69,11.52,7.34,22.57,10.45,34.01,4.74,17.47,7.27,35.27,5.51,53.58Z"/>
      <path class="cls-1" d="M1300,781.4c-4.24-15.61-8.31-31.26-12.75-46.81-7.6-26.6-15.53-53.13-25.28-79.04-8.73-23.21-18.23-46.17-32.22-66.84-14.1-20.82-30.63-39.38-52.4-52.6-6.19-3.76-12.95-6.35-19.83-8.57-7.05-2.28-13.39-.53-19.62,3.26-7.55,4.6-15.82,7.55-24.35,10-6.97,2-17.54-1.94-19.06-11.43-.86-5.39-1.87-10.75-2.74-16.14-1.31-8.11-4.93-11.57-13.04-13.24-5.01-1.03-10.06-2.31-14.8-4.2-12.88-5.13-17.23-14.83-13.34-28.88,.55-2.01,1.3-3.97,2.08-5.9,3.5-8.64,4.89-17.54,4.02-26.88-.44-4.68,.84-5.57,5.36-4.11,15.45,5,30.38,11.31,44.99,18.38,16.76,8.11,32.9,17.36,48.44,27.6,24.16,15.92,46.56,33.92,66.24,55.29,15.26,16.57,24.81,36.28,33.29,56.75,10.26,24.78,18.62,50.18,24.98,76.21,5.88,24.05,10.75,48.3,14.46,72.81,1.65,10.9,3.27,21.79,4.69,32.72,.5,3.83,2.26,7.5,.89,11.62Z"/>
      <path class="cls-1" d="M453.08,780.78c2.37-26.93,6-53.72,10.39-80.37,4.1-24.87,9.47-49.53,16.65-73.72,6.75-22.74,14.72-45.12,25.06-66.47,7.59-15.68,19.04-28.87,31.19-41.29,26.56-27.13,57.15-49,90-67.77,16.56-9.47,34.01-17.19,51.69-24.36,6.6-2.68,8.24-1.73,7.73,5.33-.67,9.11,1.65,17.46,5.22,25.64,2.54,5.82,3.8,11.89,3.12,18.26-.94,8.83-6.91,13.43-14.42,16.32-5.08,1.96-10.42,3.28-15.67,4.78-4.42,1.26-7.73,3.64-9.38,8.11-1.74,4.74-2.4,9.64-2.75,14.65-.33,4.62-.47,9.37-3.62,13.28-4.97,6.17-13.44,7.56-22.91,3.88-7.43-2.89-14.89-5.66-21.9-9.57-6.02-3.36-12.44-1.8-18.26,.3-12.94,4.66-24.12,12.36-34.15,21.75-23.07,21.59-39.54,47.53-51.36,76.7-6.44,15.89-12.24,31.98-17.25,48.36-9.85,32.19-18.25,64.75-25.61,97.6-.73,3.24-1.83,6.44-2.48,9.73-.91,.17-.92-.69-1.28-1.13Z"/>
      <path class="cls-2" d="M1855.66,771.91c-4.33-26.9-11.33-52.43-29.05-74.56-1.08,2.66-.59,4.46-.22,6.32,2.55,12.65,3.56,25.48,4.16,38.35,.11,2.31,.56,5.64-1.96,6.38-2.69,.8-3.22-2.7-4.2-4.5-5.1-9.35-8.53-19.42-12.14-29.39-4.95-13.69-9.57-27.49-14.77-42.51-1.77,7.99-1.7,14.78-2.98,21.92-4.77-11.56-9.53-23.12-14.3-34.68-2.59,12.75-1.56,25.71-4.18,38.99-3.25-6.67-6.33-12.78-9.22-18.97-3.81-8.16-7.95-16.11-13.19-23.46-1.41-1.97-2.71-4.51-5.62-3.54-2.61,.87-1.56,3.58-1.71,5.52-.82,11.22,1.86,22.08,3.53,33.04,.19,1.26,.67,2.49,.02,4.3-3-6.02-5.87-11.66-8.63-17.36-1.37-2.83-3.47-5.03-5.77-7.06-1.63-1.44-3.74-1.99-5.14-.2-1.89,2.41-2.66,1.12-3.87-.46-4.38-5.74-8.16-11.97-13.56-16.88-2.96-2.68-5.86-5.39-10.13-6.15-6.85-1.23-10.33,1.54-9.68,8.41,1.03,10.8,3.96,21.18,7.85,31.25,5.27,13.64,10.55,27.28,16.28,40.72,7.37,17.29,15.22,34.36,22.79,51.56,3.21,7.3,6.25,14.68,9.9,23.27-4.2-2.78-5.86-6.07-7.99-8.78-11-13.99-21.89-28.08-31.53-43.08-11.31-17.6-21.82-35.56-29.26-55.29-6.19-16.42-10.12-33.17-10.99-50.62-.26-5.28,.21-10.64,.81-15.91,1.04-9.22-1.78-18.24-1.05-27.43,.35-4.33,.46-8.68,2.92-12.53,3.77-5.9,9.03-8.03,15.66-6.04,10.01,3.01,20.21,5.2,30.37,7.61,16.1,3.82,31.46,9.72,46.12,17.66,13.81,7.49,26.47,16.43,37.79,27.16,10.27,9.73,18.98,20.87,26.64,32.8,11.33,17.63,19.04,36.86,23.87,57.1,3.42,14.35,5.93,29,4.38,43.95-.12,1.13-.09,2.29-1.96,3.06Z"/>
      <path class="cls-2" d="M88.15,741.83c-1.89-5.6-.17-9.94,.59-14.18,2.73-15.25,10.73-28.13,19.29-40.65,4.47-6.53,8.76-13.09,11.14-20.74,1.74-5.6,5.3-10.02,10.29-12.91,3.84-2.23,6.91-5.14,9.86-8.3,4.92-5.25,11.87-7.57,17.56,0,1.4,1.86,3.59,2.03,5.46,2.87,5.38,2.4,7.69,7.95,3.67,11.6-7.49,6.82-10.79,16.17-16.45,24.03-5.33,7.41-11.11,9.54-19.67,7.12-3.12-.88-5.29-.54-7.88,1.6-10.52,8.7-17.5,20.03-24.13,31.62-3.21,5.61-6.18,11.36-9.74,17.93Z"/>
      <path class="cls-2" d="M39.92,364.36c6.12-1.42,12.28-1.58,18.46-1.39,13.87,.42,27.56,2.35,40.98,5.73,25.45,6.42,48.2,18.28,68.74,34.63,14.36,11.43,27.29,24.2,39.44,37.93,15.06,17.03,28.26,35.4,39.88,54.81,7.14,11.93,14.04,24.06,20.87,36.2,.83,1.48,1.37,3.12,1.69,4.85-6.33-7.48-10.87-16.09-15.93-24.32-8.59-13.97-18-27.35-27.82-40.46-11.16-14.9-23.39-28.91-36.91-41.67-10.95-10.33-22.64-19.82-35.52-27.9-15.34-9.63-31.31-17.77-48.31-23.95-20.66-7.51-41.98-11.85-63.9-13.38-.58-.04-1.29,.1-1.66-1.09Z"/>
      <path class="cls-2" d="M140.87,759.57c-1.7,6.96-4.94,12.95-7.42,19.21-4.01,10.14-7.84,20.33-11.59,30.57-6.75,18.4-12.4,37.14-18.29,55.8-2.32,7.35-4.49,14.76-6.47,22.21-.92,3.46-2.87,5.58-6.33,5.15-3.12-.39-4.08-4.18-2.91-8.1,3.73-12.48,7.06-25.08,11-37.49,7.01-22.04,14.04-44.09,22.99-65.45,3.16-7.55,6.12-15.19,9.29-22.74,1.18-2.81,3.44-4.4,6.55-3.5,2.12,.61,3.63,2.1,3.18,4.36Z"/>
      <path class="cls-2" d="M149.44,720.69c1.72-8.11,2.84-16.47,8.01-23.47,1.65-2.24,3.79-3.3,6.23-1.71,2.4,1.57,2.66,4.06,.96,6.34-4.33,5.8-5.52,12.48-5.99,19.45-.18,2.7-1.18,5.39-4.47,5.17-3.2-.21-4.5-2.66-4.73-5.78Z"/>
      <path class="cls-2" d="M453.08,780.78c.37,.45,.38,1.3,1.28,1.13-.03,3.9-.25,7.73-3.39,10.79,1.9-3.81-1.37-8.39,2.11-11.93Z"/>
    </g>
  </g>
</svg>