<?xml version="1.0" encoding="UTF-8"?>
<svg id="Layer_2" data-name="Layer 2" xmlns="http://www.w3.org/2000/svg" viewBox="0 0 318.01 326.09">
  <defs>
    <style>
      .cls-1 {
        fill: #f9f9f9;
      }

      .cls-2 {
        fill: #a35498;
      }
    </style>
  </defs>
  <g id="Layer_1-2" data-name="Layer 1">
    <g>
      <path class="cls-1" d="M183.17,212.29c-.71,19.46-18.97,29.81-39.74,22.84-2.38,20.71-8.67,26.66-31.09,29.23,4.42,5.54,8.76,10.98,13.11,16.42,2.9,3.63,2.26,6.06-2.21,7.49-33.12,10.57-66.25,21.09-99.38,31.61-5.83,1.85-11.67,3.68-17.52,5.49-2.24,.7-4.87,1.59-6.07-1.2-.98-2.27,.9-3.44,2.74-4.93,10.84-8.77,21.4-17.89,32.09-26.85,9.81-8.21,19.53-16.54,29.62-24.39,2.44-1.9,1.41-2.96,.41-4.25-5.3-6.85-10.71-13.61-16.1-20.39-3.97-4.99-7.99-9.93-11.91-14.95-2.21-2.83-1.26-4.99,2.82-6.44,6.65-2.37,13.26-4.93,20.03-6.91,3.63-1.06,3.27-2.04,1.29-4.52-4.31-5.41-9.27-10.45-11.16-17.41-4.19-15.4,4.18-29.74,20.15-34.19,6.18-1.72,10-5.74,10.81-12.24,.58-4.7,2.01-8.94,4.63-13.03,3.37-5.25,7.97-8.69,13.6-10.59,8.16-2.75,13.42-7.84,15.85-16.18,3.58-12.3,15.01-21.32,27.74-19.83,8.55,1,13.47-2.38,17.41-10.08,5.43-10.6,15.41-14.41,27.6-14.01-2.25-4.96-6.1-8.48-9.05-12.58-2.58-3.57-5.55-6.85-8.22-10.35-2.72-3.56-1.81-5.99,2.51-7.01,36.78-8.68,73.56-17.31,110.33-26.02,9.1-2.15,18.14-4.53,27.23-6.73,1.27-.31,2.63-.18,3.95-.27,1.68-.12,2.98,.38,3.31,2.2,.28,1.57-.18,2.74-1.61,3.78-23.6,16.99-47.13,34.07-70.72,51.08-4.95,3.57-4.95,3.94-1.18,8.9,12.12,15.98,24.16,32.02,36.15,48.1,2.68,3.6,1.6,6.19-2.8,6.88-5.74,.9-11.53,1.51-17.43,2.27,7.17,5.59,11.54,13.3,16.94,20.13,4.51,5.7,9.64,11.02,11.76,18.33,3.27,11.3-1.13,22.46-9.43,28.99-15.49,12.2-31.34,23.93-46.84,36.11-9.79,7.69-22.2,10.14-32.97,3.47-4.97-3.08-8.92-7.09-10.8-12.77-.93-2.81-2.73-4.52-5.82-5.19Zm-36.77-119.28c-15.16-.03-20.49,3.83-25.48,17.42-3.35,9.13-9.79,15.42-18.9,18.44-8.82,2.93-13.62,9.21-14.71,17.73-1.3,10.15-6.75,15.59-16.03,18.51-14.5,4.57-21.41,20.41-11.37,33.26,13.25,16.95,26.07,34.25,39.38,51.15,8.67,11,20.99,10.41,29.01,4.49,8.23-6.08,12.61-18.63,3.8-29.78-8.79-11.13-17.35-22.44-25.93-33.73-1.38-1.82-3.71-3.95-.86-6.27,2.79-2.26,4.32,.53,5.59,2.16,9.56,12.19,18.89,24.56,28.45,36.75,7.27,9.27,18.75,11.94,29.31,4.34,8.56-6.16,12.16-17.76,4.84-28.27-8.76-12.58-18.73-24.32-28.16-36.44-1.79-2.3-5.5-4.91-2.25-7.68,3.66-3.13,5.52,1.77,7.06,3.73,11.99,15.24,23.64,30.75,35.41,46.17,3.08,4.03,7.78,5.24,12.97,4.03,4.13-.96,7.13-3.66,10.66-5.59,9.55-5.21,11.92-21.18,4.68-30.16-8.19-10.17-16.05-20.61-24.02-30.96-3.07-3.99-6.05-8.04-9.06-12.08-1.26-1.68-1.41-3.54,.36-4.76,1.64-1.14,3.48-.79,4.79,.95,5.84,7.81,11.39,15.86,17.59,23.38,6.25,7.58,11.47,16,18.6,22.86,4.24,4.08,9.58,5.9,15.16,5.17,16.75-2.18,24.61-20.74,14.5-33.56-3.12-3.96-6.05-8.08-9.12-12.09-11.01-14.36-22.03-28.72-33.09-43.05-3.8-4.92-7.05-10.53-11.7-14.46-11.76-9.94-27.01-5.51-33,6.9-3.94,8.17-9.9,12.98-18.5,11.43ZM298.36,10.8c-.03-.28-.06-.56-.1-.84-22.15,5.21-44.3,10.39-66.43,15.65-16.91,4.02-33.78,8.24-50.73,12.13-3.27,.75-2.84,1.69-1.24,3.68,2.15,2.68,4.16,5.48,6.28,8.19,17.33,22.21,34.7,44.39,51.96,66.65,1.47,1.9,2.95,2.82,5.38,2.77,8.92-.21,17.55-2.54,26.35-3.56,3.45-.4,2.68-2.05,1.12-4.1-11.59-15.21-23.1-30.47-34.66-45.69-4.43-5.84-4.3-6.27,1.73-10.66,20.15-14.7,40.24-29.47,60.35-44.22Zm-102.94,205.52c6.27,12.22,20.52,15.63,32.54,6.19,15.53-12.19,31.07-24.37,46.78-36.33,10.42-7.93,12.04-20.39,3.84-31.13-4.26-5.58-8.63-11.09-12.8-16.74-5.15-7-10.91-12.93-20.65-13.15,3.85,5,7.57,9.9,11.35,14.75,10.01,12.84,6.87,33.12-8.57,41.08-7.68,3.96-15.49,3.72-23.55,.87,2.7,15.55-9.55,30.97-28.94,34.45Zm-151,11.05c9.56,12.06,18.81,23.81,28.16,35.49,2.37,2.96,2.03,5.48-.72,7.74-12.35,10.13-24.77,20.17-37.1,30.3-4.89,4.01-9.63,8.2-14.78,12.59,1.05,.24,1.41,.44,1.68,.36,31.4-9.96,62.78-19.99,94.2-29.85,3.7-1.16,2.05-2.38,.72-4.07-15.5-19.64-32.27-38.25-47.03-58.47-1.5-2.06-2.59-2.32-4.81-1.47-6.56,2.53-13.21,4.82-20.32,7.39Z"/>
      <path class="cls-2" d="M298.36,10.8c-20.11,14.75-40.2,29.52-60.35,44.22-6.02,4.4-6.16,4.82-1.73,10.66,11.56,15.23,23.08,30.49,34.66,45.69,1.56,2.05,2.33,3.7-1.12,4.1-8.81,1.02-17.43,3.35-26.35,3.56-2.43,.06-3.91-.87-5.38-2.77-17.27-22.26-34.63-44.44-51.96-66.65-2.12-2.71-4.13-5.51-6.28-8.19-1.6-1.99-2.03-2.93,1.24-3.68,16.94-3.89,33.81-8.11,50.73-12.13,22.13-5.26,44.29-10.44,66.43-15.65,.03,.28,.06,.56,.1,.84Zm-80.54,66.62c.39-1.2,1.05-2.41,1.12-3.65,.52-9.02,1.9-17.94,2.95-26.91,1.06-9.11,.89-9.13-7.99-6.79-.16,.04-.34,0-.5,.04-6.32,1.58-12.61,3.29-18.95,4.72-3.68,.83-4.17,2.19-1.38,4.73,9.12,8.29,15.04,19.37,24.75,27.85Z"/>
      <path class="cls-2" d="M44.42,227.37c7.11-2.56,13.76-4.86,20.32-7.39,2.22-.85,3.31-.59,4.81,1.47,14.76,20.22,31.53,38.84,47.03,58.47,1.33,1.69,2.97,2.91-.72,4.07-31.43,9.86-62.81,19.89-94.2,29.85-.27,.09-.63-.12-1.68-.36,5.15-4.39,9.89-8.57,14.78-12.59,12.34-10.14,24.76-20.18,37.1-30.3,2.75-2.26,3.1-4.78,.72-7.74-9.35-11.67-18.6-23.43-28.16-35.49Zm44.08,27.16c-5.26,10.38-8.04,21.84-14.22,31.8-.86,1.39-.41,3.71,2.4,2.52,9.53-4.07,19.73-6.43,29.09-11.49-5.99-7.51-10.75-15.79-17.27-22.83Z"/>
    </g>
  </g>
</svg>