<?xml version="1.0" encoding="UTF-8"?>
<svg id="Layer_2" data-name="Layer 2" xmlns="http://www.w3.org/2000/svg" viewBox="0 0 245.67 278.42">
  <defs>
    <style>
      .cls-1 {
        fill: #fff;
      }
    </style>
  </defs>
  <g id="Layer_1-2" data-name="Layer 1">
    <g>
      <path class="cls-1" d="M4.09,278.21C.67,278.97,0,277.64,0,274.23c.14-48.44,.1-96.87,.1-145.31,1.26-4.15,4.46-4.51,8.18-4.51,36.54,.04,73.09,.03,109.63,.03,39.7,0,79.4,0,119.1-.02,3.76,0,7.34,.01,8.67,4.5v146.3c-.96,2.58-3.11,2.89-5.32,2.4-4.11-.9-8.16-1.78-11.97-3.92-32.68-18.42-65.54-36.55-98.17-55.07-5.7-3.23-10.45-2.34-15.83,.67-32.74,18.32-65.4,36.79-98.23,54.95-3.85,2.13-8.16,2.3-12.06,3.95Z"/>
      <path class="cls-1" d="M245.67,65.23v28.86c-.99,4.27-3.73,5.54-8.01,5.54-76.62-.09-153.23-.07-229.85-.03-3.66,0-6.3-1.05-7.72-4.52v-29.86c1.41-3.52,4.09-4.52,7.75-4.51,76.69,.04,153.39,.04,230.08,0,3.66,0,6.34,1,7.75,4.51Z"/>
      <path class="cls-1" d="M245.67,2.53V31.39c-1.26,4.15-4.46,4.51-8.18,4.51-36.71-.04-73.42-.03-110.13-.03-39.53,0-79.07,0-118.6,.02-3.76,0-7.34,0-8.67-4.5V2.53C1.22-.27,3.63,.03,5.98,.03c25.92,.02,51.85,0,77.77,0,51.85,0,103.69,0,155.54,0,2.44,0,5.13-.59,6.38,2.48Z"/>
    </g>
  </g>
</svg>